<?xml version="1.0" encoding="UTF-8" standalone="no"?>
<!-- Created with Inkscape (http://www.inkscape.org/) -->

<svg
   width="256"
   height="256"
   viewBox="0 0 67.733334 67.733334"
   version="1.1"
   id="svg5"
   inkscape:version="1.2.1 (9c6d41e410, 2022-07-14)"
   sodipodi:docname="time.svg"
   xmlns:inkscape="http://www.inkscape.org/namespaces/inkscape"
   xmlns:sodipodi="http://sodipodi.sourceforge.net/DTD/sodipodi-0.dtd"
   xmlns="http://www.w3.org/2000/svg"
   xmlns:svg="http://www.w3.org/2000/svg">
  <sodipodi:namedview
     id="namedview7"
     pagecolor="#505050"
     bordercolor="#eeeeee"
     borderopacity="1"
     inkscape:showpageshadow="0"
     inkscape:pageopacity="0"
     inkscape:pagecheckerboard="0"
     inkscape:deskcolor="#505050"
     inkscape:document-units="mm"
     showgrid="false"
     inkscape:zoom="0.95321268"
     inkscape:cx="295.3171"
     inkscape:cy="59.797778"
     inkscape:window-width="1360"
     inkscape:window-height="715"
     inkscape:window-x="-8"
     inkscape:window-y="-8"
     inkscape:window-maximized="1"
     inkscape:current-layer="layer1" />
  <defs
     id="defs2" />
  <g
     inkscape:label="Layer 1"
     inkscape:groupmode="layer"
     id="layer1">
    <path
       id="path234"
       style="fill:#000000;stroke-width:1.29646;paint-order:stroke fill markers"
       d="M 33.866667,0 A 33.866683,33.866683 0 0 0 0,33.866667 33.866683,33.866683 0 0 0 33.866667,67.733333 33.866683,33.866683 0 0 0 67.733333,33.866667 33.866683,33.866683 0 0 0 33.866667,0 Z m 0,6.4628256 A 27.403922,27.403922 0 0 1 61.270644,33.866667 27.403922,27.403922 0 0 1 33.866667,61.270644 27.403922,27.403922 0 0 1 6.4628256,33.866667 27.403922,27.403922 0 0 1 33.866667,6.4628256 Z" />
    <rect
       style="fill:#000000;stroke-width:0.771515;paint-order:stroke fill markers"
       id="rect605"
       width="3.6090734"
       height="24.391886"
       x="32.062145"
       y="9.4747791"
       rx="0.26221207"
       ry="0.36600572" />
    <rect
       style="fill:#000000;stroke-width:0.642456;paint-order:stroke fill markers"
       id="rect607"
       width="3.6090734"
       height="16.913931"
       x="32.06213"
       y="-50.780613"
       rx="0.26221207"
       ry="0.25379732"
       transform="rotate(90)" />
    <rect
       style="fill:#000000;stroke-width:1.4887;paint-order:stroke fill markers"
       id="rect609"
       width="3.6091075"
       height="3.6090763"
       x="32.062111"
       y="32.06213"
       rx="0.22806056"
       ry="0.38475859" />
  </g>
</svg>
